#!OML:ASF F:\VICON\USERDATA\INSTALL\rory3\rory3.ASF
:FULLY-SPECIFIED
:DEGREES
190
root -0.511902 16.1802 -12.4608 2.96463 1.66488 6.86546
lowerback 12.7991 -0.363552 -10.4006
upperback -4.64456 -2.23356 1.00667
thorax -11.9897 -0.203364 7.52097
lowerneck -10.6386 -5.93232 -3.86791
upperneck 18.0263 -8.1239 3.33104
head 7.59504 -3.84864 0.924431
rclavicle 2.5842e-015 -2.06736e-014
rhumerus -46.8252 -2.4396 -84.5518
rradius 24.4832
rwrist 10.6619
rhand -11.6117 26.7091
rfingers 7.12502
rthumb 14.4311 -2.76913
lclavicle 2.5842e-015 -2.06736e-014
lhumerus -33.9546 -0.69728 89.1244
lradius 30.6116
lwrist 4.96808
lhand -6.23942 18.3768
lfingers 7.12502
lthumb 19.6022 47.4086
rfemur -36.921 21.5575 4.56574
rtibia 28.0897
rfoot -15.7474 -14.798
rtoes 50.1814
lfemur 21.1741 -14.0444 -34.9055
ltibia -1.59028e-014
lfoot -14.1278 9.53116
ltoes -8.66032
191
root -0.54343 16.1759 -12.3133 2.90305 1.78656 6.70054
lowerback 12.7461 -0.393211 -10.2818
upperback -4.57117 -2.23365 1.07652
thorax -11.8714 -0.219919 7.52726
lowerneck -10.5875 -5.91009 -3.95139
upperneck 17.9582 -8.09316 3.41686
head 7.56973 -3.8331 0.971162
rclavicle -3.46631e-015 -7.95139e-016
rhumerus -46.4468 -2.94786 -84.173
rradius 24.0198
rwrist 10.9606
rhand -11.0513 25.3694
rfingers 7.12502
rthumb 14.9711 -4.06946
lclavicle -3.46631e-015 -7.95139e-016
lhumerus -33.8655 -0.310541 89.0312
lradius 30.016
lwrist 4.79199
lhand -6.28615 18.3332
lfingers 7.12502
lthumb 19.5573 47.3695
rfemur -36.8332 21.0632 5.26294
rtibia 28.8917
rfoot -14.2316 -15.5403
rtoes 49.4574
lfemur 21.7926 -13.9111 -34.6488
ltibia -3.18055e-014
lfoot -13.9 9.29997
ltoes -9.90759
192
root -0.574316 16.1688 -12.1663 2.86617 1.85074 6.54075
lowerback 12.6826 -0.40934 -10.1496
upperback -4.50744 -2.21314 1.14461
thorax -11.763 -0.226699 7.51917
lowerneck -10.7977 -5.91833 -3.95675
upperneck 18.0429 -8.0925 3.37996
head 7.63361 -3.83219 0.952665
rclavicle 1.14922e-014 -7.95139e-015
rhumerus -46.0494 -3.68373 -83.5848
rradius 23.4661
rwrist 11.3689
rhand -9.83667 23.0168
rfingers 7.12502
rthumb 16.1409 -6.3311
lclavicle 1.14922e-014 -7.95139e-015
lhumerus -33.9855 0.205009 88.9138
lradius 29.5368
lwrist 4.24152
lhand -6.36481 18.1736
lfingers 7.12502
lthumb 19.4816 47.2176
rfemur -36.7967 20.4315 6.01683
rtibia 29.8139
rfoot -12.5033 -15.903
rtoes 48.6516
lfemur 22.3984 -13.731 -34.3864
ltibia 1.59028e-014
lfoot -13.5908 9.00286
ltoes -10.6905
193
root -0.604418 16.1647 -12.019 2.78998 1.88742 6.43345
lowerback 12.7275 -0.453079 -10.0736
upperback -4.5454 -2.26022 1.19532
thorax -11.8233 -0.246827 7.5462
lowerneck -10.4821 -5.88617 -3.96835
upperneck 17.8501 -8.05076 3.39057
head 7.51345 -3.81917 0.974309
rclavicle 1.6437e-014 -1.27222e-014
rhumerus -46.0165 -4.09294 -83.1223
rradius 22.978
rwrist 11.8001
rhand -9.48622 22.1601
rfingers 7.12502
rthumb 16.4784 -7.16015
lclavicle 1.6437e-014 -1.27222e-014
lhumerus -34.4409 0.796302 88.7321
lradius 29.3235
lwrist 3.90324
lhand -6.45605 18.4116
lfingers 7.12502
lthumb 19.3939 47.4645
rfemur -36.6617 19.6455 6.79779
rtibia 30.7445
rfoot -10.4998 -16.0756
rtoes 47.0484
lfemur 22.9854 -13.5233 -34.1649
ltibia 2.54444e-014
lfoot -13.0396 8.65469
ltoes -11.1439
194
root -0.636292 16.1456 -11.8744 2.69168 1.95146 6.32943
lowerback 12.7544 -0.491118 -9.95765
upperback -4.53206 -2.29109 1.21293
thorax -11.8187 -0.270274 7.50711
lowerneck -10.0104 -5.81445 -3.97917
upperneck 17.4657 -7.96025 3.44827
head 7.30348 -3.78265 1.02281
rclavicle 3.04638e-014 1.43125e-014
rhumerus -45.9216 -4.39592 -82.8532
rradius 22.5531
rwrist 12.2766
rhand -9.98997 23.8004
rfingers 7.12502
rthumb 15.9933 -5.55945
lclavicle 3.04638e-014 1.43125e-014
lhumerus -34.6975 1.40899 88.4594
lradius 28.8375
lwrist 3.51394
lhand -6.42934 18.4986
lfingers 7.12502
lthumb 19.4196 47.5489
rfemur -36.5212 18.76 7.59552
rtibia 31.7024
rfoot -8.86676 -16.1135
rtoes 44.5725
lfemur 23.619 -13.3352 -33.9643
ltibia 3.18055e-014
lfoot -12.4066 8.42391
ltoes -11.9888
195
root -0.670973 16.1397 -11.7321 2.61593 2.03939 6.17515
lowerback 12.79 -0.530285 -9.87075
upperback -4.48823 -2.32412 1.26409
thorax -11.7821 -0.294063 7.52238
lowerneck -10.2753 -5.72423 -3.97211
upperneck 17.7833 -7.8471 3.47431
head 7.45036 -3.71864 1.03003
rclavicle 1.66234e-014 -2.46493e-014
rhumerus -45.8336 -4.4971 -82.7219
rradius 22.2618
rwrist 12.6233
rhand -10.8742 25.2727
rfingers 7.12502
rthumb 15.1416 -4.15338
lclavicle 1.66234e-014 -2.46493e-014
lhumerus -34.9092 1.80931 88.2832
lradius 28.2938
lwrist 3.29037
lhand -6.51522 18.4253
lfingers 7.12502
lthumb 19.337 47.4838
rfemur -36.3454 17.9971 8.38978
rtibia 32.5996
rfoot -8.29239 -15.7682
rtoes 43.9174
lfemur 24.2094 -13.1805 -33.6889
ltibia -9.54166e-015
lfoot -11.6667 8.17249
ltoes -13.6485
196
root -0.707755 16.1377 -11.589 2.60106 2.04613 5.86615
lowerback 12.8939 -0.525672 -9.70228
upperback -4.51594 -2.2871 1.38679
thorax -11.8826 -0.275499 7.56276
lowerneck -10.695 -5.70575 -3.86205
upperneck 18.2571 -7.80561 3.25777
head 7.66525 -3.70017 0.928801
rclavicle -1.97294e-014 1.19271e-014
rhumerus -45.8797 -4.64478 -82.4087
rradius 22.0326
rwrist 12.9236
rhand -11.1717 22.3403
rfingers 7.12502
rthumb 14.8551 -7.1072
lclavicle -1.97294e-014 1.19271e-014
lhumerus -35.2888 2.10951 88.2148
lradius 27.9553
lwrist 3.07867
lhand -6.47875 18.817
lfingers 7.12502
lthumb 19.3721 47.872
rfemur -36.2388 17.5273 9.25958
rtibia 33.4245
rfoot -7.86925 -15.3823
rtoes 43.9716
lfemur 24.6588 -12.9733 -33.184
ltibia -3.18055e-014
lfoot -10.8185 7.89139
ltoes -14.8188
197
root -0.740718 16.1358 -11.4377 2.46738 1.86502 5.70971
lowerback 12.9678 -0.451512 -9.66453
upperback -4.44083 -2.17675 1.45619
thorax -11.8611 -0.226633 7.59711
lowerneck -11.0401 -5.73759 -3.74591
upperneck 18.4705 -7.83516 3.08952
head 7.78647 -3.71459 0.839564
rclavicle 6.07536e-015 7.15625e-015
rhumerus -45.7169 -5.04684 -81.9146
rradius 21.6832
rwrist 13.2819
rhand -11.097 25.5393
rfingers 7.12502
rthumb 14.927 -3.90287
lclavicle 6.07536e-015 7.15625e-015
lhumerus -35.4521 2.74598 87.9691
lradius 27.6023
lwrist 3.02218
lhand -6.05917 19.5983
lfingers 7.12502
lthumb 19.7755 48.6123
rfemur -35.9827 17.1808 10.0115
rtibia 34.1557
rfoot -6.79825 -15.1168
rtoes 42.9995
lfemur 23.9641 -12.5531 -32.8798
ltibia 2.20551
lfoot -10.8412 7.56903
ltoes -15.3464
198
root -0.772376 16.1374 -11.2938 2.36964 1.56638 5.5978
lowerback 12.9877 -0.355322 -9.65548
upperback -4.37999 -2.04098 1.48922
thorax -11.83 -0.165522 7.59904
lowerneck -11.1206 -5.68766 -3.61292
upperneck 18.2977 -7.78648 3.1157
head 7.73745 -3.68034 0.831617
rclavicle 8.19987e-015 -2.06736e-014
rhumerus -45.3527 -5.79682 -81.3048
rradius 21.2165
rwrist 13.6561
rhand -9.94259 21.7847
rfingers 7.12502
rthumb 16.0389 -7.57143
lclavicle 8.19987e-015 -2.06736e-014
lhumerus -35.6391 3.42118 87.5882
lradius 27.3734
lwrist 3.5108
lhand -5.45163 20.508
lfingers 7.12502
lthumb 20.3594 49.4608
rfemur -35.8314 16.7098 10.7301
rtibia 34.8958
rfoot -5.70237 -14.5973
rtoes 41.5762
lfemur 21.4295 -12.0175 -32.612
ltibia 7.48268
lfoot -11.8633 7.19499
ltoes -16.021
